<?xml version="1.0" encoding="iso-8859-1"?>
<!-- Generator: Adobe Illustrator 19.0.0, SVG Export Plug-In . SVG Version: 6.00 Build 0)  -->
<svg version="1.1" id="Layer_1" xmlns="http://www.w3.org/2000/svg" xmlns:xlink="http://www.w3.org/1999/xlink" x="0px" y="0px"
	 viewBox="0 0 512 512" style="enable-background:new 0 0 512 512;" xml:space="preserve">
<g>
	<g>
		<path d="M397.222,235.117l76.453-32.003l-33.544-123.38c-13.365-30.117-43.292-49.578-76.242-49.578h-30.293L323.334,0H188.755
			l-10.262,30.156h-30.361c-32.95,0-62.876,19.46-76.242,49.578l-0.468,1.055L38.325,203.193l77.477,31.863l23.417-31.224
			l11.982,35.945l-33.148,132.074L118.203,512h92.501l45.785-117.734L302.275,512h92.5l0.151-140.148l-33.148-132.074l11.981-35.945
			L397.222,235.117z M428.26,150.089l9.598,35.495l-30.66,12.835l-24.081-32.107L428.26,150.089z M210.252,30h91.517l49.251,147.182
			l-17.021,51.063l-77.988,49.777l-76.773-49.001l-17.757-53.271L210.252,30z M105.735,198.478l-31.549-12.975l9.576-35.415
			l45.896,16.493L105.735,198.478z M142.088,139.17l-50.469-18.137l8.143-30.116c8.766-18.723,27.634-30.761,48.371-30.761h20.394
			L142.088,139.17z M364.923,375.543L364.809,482h-42.012l-47.951-123.302h-36.713L190.182,482h-42.011l-0.114-106.457
			l28.303-112.769l79.651,50.838l80.476-51.365L364.923,375.543z M343.495,60.156h20.394c20.737,0,39.604,12.038,48.371,30.761
			l8.144,30.117l-50.469,18.136L343.495,60.156z"/>
	</g>
</g>
<g>
</g>
<g>
</g>
<g>
</g>
<g>
</g>
<g>
</g>
<g>
</g>
<g>
</g>
<g>
</g>
<g>
</g>
<g>
</g>
<g>
</g>
<g>
</g>
<g>
</g>
<g>
</g>
<g>
</g>
</svg>
