<?xml version="1.0" encoding="iso-8859-1"?>
<!-- Generator: Adobe Illustrator 19.0.0, SVG Export Plug-In . SVG Version: 6.00 Build 0)  -->
<svg version="1.1" id="Layer_1" xmlns="http://www.w3.org/2000/svg" xmlns:xlink="http://www.w3.org/1999/xlink" x="0px" y="0px"
	 viewBox="0 0 512 512" style="enable-background:new 0 0 512 512;" xml:space="preserve">
<g>
	<g>
		<path d="M379.652,278.151c7.424-7.419,14.52-15.324,21.106-23.511l0.548-0.683c53.573-66.596,75.229-152.965,59.414-236.96
			L457.523,0l-16.934,2.548C367.256,13.584,301.654,51.775,256,108.989C210.346,51.775,144.743,13.584,71.411,2.548L54.477,0
			l-3.198,16.996c-15.814,83.995,5.841,170.365,59.406,236.952l0.564,0.702c6.579,8.178,13.675,16.083,21.098,23.502l16.493,18.458
			L70.015,440.631l70.114,8.446L170.69,512L256,416.53L341.309,512l30.563-62.922l70.113-8.446L363.159,296.61L379.652,278.151z
			 M134.74,235.768l-0.564-0.702C93.55,184.565,73.414,121.38,76.735,57.527l91.92,130.122l24.615-17.389L101.171,39.885
			c54.553,15.851,102.447,48.999,136.546,94.731c-0.711,1.119-1.437,2.226-2.134,3.356c-5.509,8.932-10.587,18.263-15.099,27.741
			l-56.289,102.845l-9.66-10.81l-0.602-0.634C147.175,250.38,140.714,243.196,134.74,235.768z M178.164,458.405l-10.628-21.882
			L315.772,226.68l-24.614-17.388L142.971,419.065l-25.137-3.028l129.294-236.232l0.397-0.779
			c4.088-8.621,8.701-17.111,13.71-25.234c34.323-55.658,87.68-95.916,149.594-113.907L318.73,170.26l24.615,17.389l91.921-130.123
			c3.321,63.853-16.816,127.04-57.449,177.55l-0.548,0.683c-5.983,7.437-12.443,14.622-19.201,21.355l-0.31,0.309L178.164,458.405z
			 M333.835,458.406l-57.627-64.491l21.31-23.848l46.946,66.456L333.835,458.406z M394.167,416.037l-25.138,3.028l-50.904-72.059
			l23.727-26.552L394.167,416.037z"/>
	</g>
</g>
<g>
</g>
<g>
</g>
<g>
</g>
<g>
</g>
<g>
</g>
<g>
</g>
<g>
</g>
<g>
</g>
<g>
</g>
<g>
</g>
<g>
</g>
<g>
</g>
<g>
</g>
<g>
</g>
<g>
</g>
</svg>
